<svg width="754" height="240" viewBox="0 0 754 240" fill="none" xmlns="http://www.w3.org/2000/svg">
<rect y="54" width="136" height="136" fill="url(#paint0_linear_2727_2)"/>
<path d="M83.2656 76.9727H56.1795L33.6078 122L11.036 167.027H38.1221L83.2656 76.9727Z" fill="url(#paint1_linear_2727_2)"/>
<path d="M125.102 76.9727H98.0155L52.872 167.027H79.9581L125.102 76.9727Z" fill="url(#paint2_linear_2727_2)"/>
<path d="M285.4 188H205.2V51.8H228.4V171.6L224.4 166H285.4V188ZM342.052 190C332.452 190 324.052 187.933 316.852 183.8C309.652 179.533 303.985 173.6 299.852 166C295.852 158.4 293.852 149.533 293.852 139.4C293.852 129.133 295.852 120.2 299.852 112.6C303.985 104.867 309.652 98.8667 316.852 94.6C324.052 90.3333 332.452 88.2 342.052 88.2C351.785 88.2 360.252 90.4 367.452 94.8C374.785 99.0667 380.452 105.067 384.452 112.8C388.452 120.4 390.452 129.2 390.452 139.2C390.452 140.4 390.385 141.6 390.252 142.8C390.252 144 390.185 145.067 390.052 146H314.252V127.4H372.852L368.052 138C368.052 128.8 365.918 121.267 361.652 115.4C357.385 109.533 350.918 106.6 342.252 106.6C334.385 106.6 328.118 109.067 323.452 114C318.918 118.8 316.652 125.2 316.652 133.2V143.8C316.652 152.067 318.918 158.667 323.452 163.6C328.118 168.4 334.518 170.8 342.652 170.8C349.985 170.8 355.652 169.267 359.652 166.2C363.785 163.133 367.318 159.333 370.252 154.8L386.852 164.8C382.452 173.067 376.585 179.333 369.252 183.6C361.918 187.867 352.852 190 342.052 190ZM463.525 188L439.725 150.8H446.925L423.125 188H395.925L432.925 134.2L433.125 144L396.125 90.4H423.325L447.125 127.4H439.725L463.325 90.4H490.525L453.525 144L453.725 134.2L490.725 188H463.525ZM529.311 188H506.111V90.4H529.311V188ZM503.111 60C503.111 55.7333 504.378 52.2667 506.911 49.6C509.578 46.8 513.178 45.4 517.711 45.4C521.978 45.4 525.444 46.8 528.111 49.6C530.778 52.2667 532.111 55.7333 532.111 60C532.111 64.2667 530.778 67.7333 528.111 70.4C525.444 73.0667 521.978 74.4 517.711 74.4C513.178 74.4 509.578 73.0667 506.911 70.4C504.378 67.7333 503.111 64.2667 503.111 60ZM616.158 190.2C602.291 190.2 590.158 187.2 579.758 181.2C569.358 175.067 561.291 166.733 555.558 156.2C549.958 145.533 547.158 133.467 547.158 120C547.158 109.867 548.824 100.533 552.158 92C555.624 83.3333 560.424 75.8667 566.558 69.6C572.824 63.3333 580.158 58.4667 588.558 55C596.958 51.5333 606.158 49.8 616.158 49.8C631.758 49.8 644.558 53.0667 654.558 59.6C664.558 66.1333 672.558 75.1333 678.558 86.6L656.558 94C650.958 85.8667 644.824 80.2 638.158 77C631.624 73.8 624.291 72.2 616.158 72.2C607.491 72.2 599.758 74.2667 592.958 78.4C586.158 82.4 580.758 88 576.758 95.2C572.758 102.4 570.758 110.667 570.758 120C570.758 129.333 572.758 137.6 576.758 144.8C580.758 152 586.158 157.667 592.958 161.8C599.758 165.8 607.491 167.8 616.158 167.8C624.291 167.8 631.624 166.2 638.158 163C644.824 159.8 650.958 154.133 656.558 146L678.558 153.4C672.558 164.867 664.558 173.867 654.558 180.4C644.558 186.933 631.758 190.2 616.158 190.2ZM714.173 73.8L722.573 78.6C721.64 81 719.773 83.4 716.973 85.8C714.307 88.2 710.64 90.2 705.973 91.8C701.44 93.2667 695.907 94 689.373 94V72C694.84 72 699.64 71.2 703.773 69.6C708.04 67.8667 711.573 65.4667 714.373 62.4C717.307 59.3333 719.44 55.8 720.773 51.8H737.373V188H714.173V73.8Z" fill="#2B348C"/>
<defs>
<linearGradient id="paint0_linear_2727_2" x1="0" y1="190" x2="136" y2="54" gradientUnits="userSpaceOnUse">
<stop stop-color="#0028FF"/>
<stop offset="1" stop-color="#FF0000"/>
</linearGradient>
<linearGradient id="paint1_linear_2727_2" x1="33.4565" y1="79.2525" x2="87.6388" y2="148.316" gradientUnits="userSpaceOnUse">
<stop stop-color="white" stop-opacity="0.7"/>
<stop offset="1" stop-color="white"/>
</linearGradient>
<linearGradient id="paint2_linear_2727_2" x1="75.2924" y1="79.2525" x2="129.475" y2="148.316" gradientUnits="userSpaceOnUse">
<stop stop-color="white" stop-opacity="0.7"/>
<stop offset="1" stop-color="white"/>
</linearGradient>
</defs>
</svg>
