<svg width="968" height="213" viewBox="0 0 968 213" fill="none" xmlns="http://www.w3.org/2000/svg">
<path d="M36.3 58.8V210H5.36442e-07V-1.43051e-05H39.3L124.2 147V-1.43051e-05H160.5V210H123.9L36.3 58.8ZM299.393 49.8H334.493V130.2C334.493 174.3 300.293 210.3 258.893 210.3C217.193 210.3 183.293 174.3 183.293 130.2V50.1H218.093V130.2C218.093 155.1 236.393 175.5 258.893 175.5C281.093 175.5 299.393 155.1 299.393 130.2V49.8ZM425.829 49.5C450.429 49.5 470.529 69.6 470.529 94.2V207H435.429V200.4C422.529 208.8 409.629 210 403.629 210C372.429 210 347.529 184.8 347.529 153.9C347.529 122.7 372.429 97.8 403.629 97.8H435.429V94.2C435.429 88.8 431.229 84.3 425.829 84.3H403.629V49.5H425.829ZM403.629 174.9C424.629 174.9 432.129 150.6 434.829 132.6H403.629C391.929 132.6 382.329 142.2 382.329 153.9C382.329 165.6 391.929 174.9 403.629 174.9ZM566.81 49.5C608.21 49.5 642.41 85.5 642.41 129.6V210H607.31V129.6C607.31 104.7 589.01 84.6 566.81 84.6C544.31 84.6 526.01 104.7 526.01 129.6V210.3H491.21V129.9C491.21 85.5 525.11 49.5 566.81 49.5ZM733.132 177C749.932 177 764.332 165.6 770.632 149.4H806.932C799.132 185.1 769.132 212.1 733.132 212.1C691.432 212.1 657.532 176.1 657.532 131.7C657.532 87.6 691.432 51.6 733.132 51.6C769.132 51.6 799.132 78.6 806.932 114.3H770.632C764.332 98.1 749.932 86.7 733.132 86.7C710.632 86.7 692.332 106.8 692.332 131.7C692.332 156.9 710.632 177 733.132 177ZM966.879 141.9H852.579C856.779 162.3 873.279 177.3 892.779 177.3C907.479 177.3 920.379 168.9 927.579 156H963.879C954.279 187.8 926.079 210.9 892.779 210.9C851.379 210.9 818.079 175.2 818.079 131.4C818.079 87.6 851.379 51.9 892.779 51.9C926.079 51.9 954.279 75 963.879 106.8C966.279 114.6 967.479 122.7 967.479 131.4C967.479 135 967.479 138.3 966.879 141.9ZM857.979 106.8H927.579C920.379 93.9 907.479 85.5 892.779 85.5C878.079 85.5 865.179 93.9 857.979 106.8Z" fill="url(#paint0_linear_2728_10)"/>
<defs>
<linearGradient id="paint0_linear_2728_10" x1="-13.5" y1="210" x2="973.304" y2="-41.0223" gradientUnits="userSpaceOnUse">
<stop stop-color="#0033FF"/>
<stop offset="0.538462" stop-color="#26AFF9"/>
<stop offset="1" stop-color="#24A8F9"/>
</linearGradient>
</defs>
</svg>
